<?xml version="1.0" standalone="no"?>
<!DOCTYPE svg PUBLIC "-//W3C//DTD SVG 20010904//EN"
 "http://www.w3.org/TR/2001/REC-SVG-20010904/DTD/svg10.dtd">
<svg version="1.0" xmlns="http://www.w3.org/2000/svg"
 width="512.000000pt" height="512.000000pt" viewBox="0 0 512.000000 512.000000"
 preserveAspectRatio="xMidYMid meet">

<g transform="translate(0.000000,512.000000) scale(0.100000,-0.100000)"
fill="#000000" stroke="none">
<path d="M2410 2865 l0 -355 -854 -2 c-845 -3 -855 -3 -882 -24 -15 -11 -37
-33 -48 -48 -20 -27 -21 -41 -24 -482 l-3 -454 76 0 75 0 0 -750 0 -750 315 0
c297 0 318 1 355 20 26 13 47 34 60 60 19 38 20 58 20 670 0 612 -1 632 -20
670 -13 26 -34 47 -60 60 -36 18 -58 20 -280 20 l-240 0 0 355 0 355 755 0
755 0 0 -355 0 -355 150 0 150 0 0 355 0 355 755 0 755 0 0 -355 0 -355 150 0
151 0 -3 458 c-3 455 -3 457 -25 488 -48 67 -1 64 -937 64 l-846 0 0 355 0
355 -150 0 -150 0 0 -355z"/>
</g>
</svg>
